# xmcd
#
# Track frame offsets: 
#        150
#        29371
#        54755
#        73082
#        86931
#        106794
#        127706
#        149681
#        167721
#        183549
#        199626
#        211267
#        226969
#        242593
#        258799
#
# Disc length: 3863 seconds
#
# Revision: 0
# Processed by: cddbd v1.5.2PL0 Copyright (c) Steve Scherf et al.
# Submitted via: ExactAudioCopy v1.0b3
#
DISCID=ca0f150f
DTITLE=Enchantment - Enchantment
DYEAR=1976
DGENRE=Soul
TTITLE0=Hold On
TTITLE1=Gloria
TTITLE2=Dance To The Music
TTITLE3=Sexy Lady
TTITLE4=Come On And Ride
TTITLE5=My Rose
TTITLE6=Sunshine
TTITLE7=Thank You Girl For Loving Me
TTITLE8=Call On Me (Original Single Version)
TTITLE9=Come On And Ride (Original Single Version)
TTITLE10=Hold On (Original Single Version)
TTITLE11=Gloria (Original Single Version)
TTITLE12=Dance To The Music (Original Single Version)
TTITLE13=Sunshine (Original Single Version)
TTITLE14=Hold On (Original 12" Disco Version)
EXTD=
EXTT0=
EXTT1=
EXTT2=
EXTT3=
EXTT4=
EXTT5=
EXTT6=
EXTT7=
EXTT8=
EXTT9=
EXTT10=
EXTT11=
EXTT12=
EXTT13=
EXTT14=
PLAYORDER=
